# xmcd CD database file
#
# Track frame offsets:
#	150
#	15318
#	29628
#	45873
#	59630
#	77781
#	93609
#	107480
#	121520
#	135193
#
# Disc length: 1995 seconds
#
# Revision: 0
# Processed by: cddbd v1.5.2PL0 Copyright (c) Steve Scherf et al.
# Submitted via: CDex 1.51
#
DISCID=6f07c90a
DTITLE=Instrumental Moods - Cafe Grooves
DYEAR=2009
DGENRE=Jazz
TTITLE0=Taking A Chance
TTITLE1=Keep Following
TTITLE2=Gloomy Day
TTITLE3=Getting Closer
TTITLE4=Go For Miles
TTITLE5=Summer's End
TTITLE6=Night's Fog
TTITLE7=Closer To The Finish
TTITLE8=Look To The Future
TTITLE9=Stars Are Out
EXTD=YEAR: 2009
EXTT0=
EXTT1=
EXTT2=
EXTT3=
EXTT4=
EXTT5=
EXTT6=
EXTT7=
EXTT8=
EXTT9=
PLAYORDER=
